<?xml version="1.0" encoding="UTF-8"?>
<svg width="15px" height="14px" viewBox="0 0 15 14" version="1.1" xmlns="http://www.w3.org/2000/svg" xmlns:xlink="http://www.w3.org/1999/xlink">
    <!-- Generator: Sketch 53.2 (72643) - https://sketchapp.com -->
    <title>Group 2</title>
    <desc>Created with Sketch.</desc>
    <g id="Page-1" stroke="none" stroke-width="1" fill="none" fill-rule="evenodd">
        <g id="Ogaan-header" transform="translate(-1362.000000, -107.000000)" fill="#231815" fill-rule="nonzero">
            <g id="Group-2" transform="translate(1362.000000, 107.000000)">
                <path d="M5.5,11 C2.5,11 0,8.5 0,5.5 C0,2.5 2.5,0 5.5,0 C8.5,0 11,2.5 11,5.5 C11,8.5 8.5,11 5.5,11 Z M5.5,1 C3,1 1,3 1,5.5 C1,8 3,10 5.5,10 C8,10 10,8 10,5.5 C10,3 8,1 5.5,1 Z" id="Shape"></path>
                <path d="M9.5,8.8 L13.9,13.2 C14.1,13.4 14.1,13.7 13.9,13.9 C13.8,14 13.6,14 13.5,14 C13.4,14 13.2,14 13.1,13.9 L8.7,9.5 L9.5,8.8 Z" id="Path"></path>
            </g>
        </g>
    </g>
</svg>